<svg height="512pt" viewBox="0 0 512 512.001" width="512pt" xmlns="http://www.w3.org/2000/svg" xmlns:xlink="http://www.w3.org/1999/xlink"><linearGradient id="a" gradientUnits="userSpaceOnUse" x1="-.0004110007" x2="511.9988139988" y1="255.999987999" y2="255.999987999"><stop offset="0" stop-color="#00f2fe"/><stop offset=".0208" stop-color="#03effe"/><stop offset=".2931" stop-color="#24d2fe"/><stop offset=".5538" stop-color="#3cbdfe"/><stop offset=".7956" stop-color="#4ab0fe"/><stop offset="1" stop-color="#4facfe"/></linearGradient><path d="m492 412c11.046875 0 20-8.953125 20-20v-20.882812c0-47.484376-38.636719-86.117188-86.125-86.117188h-12.636719c6.828125-11.777344 10.761719-25.433594 10.761719-40v-139c0-11.046875-8.953125-20-20-20h-67v-8c0-43.011719-34.992188-78-78-78s-78 34.988281-78 78v8h-73c-11.046875 0-20 8.953125-20 20v134.917969c-8.703125-4.605469-18.460938-7.011719-28.5625-6.914063-16.027344.148438-31.035156 6.53125-42.261719 17.972656-11.222656 11.4375-17.324219 26.5625-17.17187475 42.589844.14843775 16.023438 6.53124975 31.03125 17.97265575 42.257813.136719.136719.277344.269531.417969.402343l101.859375 94.304688c26.542969 25.660156 57.355469 45.695312 91.578125 59.546875 34.296875 13.882813 70.449219 20.921875 107.445313 20.921875h172.722656c11.046875 0 20-8.953125 20-20s-8.953125-20-20-20h-172.722656c-64.308594 0-125.167969-24.632812-171.367188-69.363281-.105468-.105469-.214844-.207031-.324218-.308594l-101.765626-94.226563c-3.707031-3.722656-5.769531-8.652343-5.820312-13.914062-.050781-5.339844 1.984375-10.382812 5.726562-14.195312 3.742188-3.8125 8.742188-5.941407 14.085938-5.992188h.191406c5.269532 0 10.234375 2.027344 14.003906 5.726562.167969.164063.339844.328126.515626.488282l115.445312 105.488281c10.964844 11.855469 26.644531 19.296875 44.03125 19.296875h100c11.042969 0 20-8.953125 20-20s-8.957031-20-20-20h-100c-4.128906 0-7.96875-1.257812-11.160156-3.410156-.121094-.117188-.226563-.242188-.351563-.355469l-4.058593-3.707031c-2.765626-3.433594-4.429688-7.785156-4.429688-12.527344 0-11.027344 8.972656-20 20-20h191.875c25.433594 0 46.125 20.6875 46.125 46.117188v20.882812c0 11.046875 8.953125 20 20 20zm-271-334c0-20.953125 17.046875-38 38-38s38 17.046875 38 38v8h-76zm-93 48h53v21c0 11.046875 8.953125 20 20 20s20-8.953125 20-20v-21h76v21c0 11.046875 8.953125 20 20 20s20-8.953125 20-20v-21h47v119c0 22.054688-17.945312 40-40 40h-176c-22.804688 0-40-15.90625-40-37zm0 0" fill="url(#a)"/></svg>