<svg height="511pt" viewBox="0 0 511.99899 511" width="511pt" xmlns="http://www.w3.org/2000/svg" xmlns:xlink="http://www.w3.org/1999/xlink"><linearGradient id="linear0" gradientUnits="userSpaceOnUse" x1="-.00021" x2="511.999645928" y1="256.440423964" y2="256.440423964"><stop offset="0" stop-color="#00f2fe"/><stop offset=".0208" stop-color="#03effe"/><stop offset=".2931" stop-color="#24d2fe"/><stop offset=".5538" stop-color="#3cbdfe"/><stop offset=".7956" stop-color="#4ab0fe"/><stop offset="1" stop-color="#4facfe"/></linearGradient><path d="m20.003906 75.5h27.300782l-41.34375-40.757812c-7.863282-7.757813-7.957032-20.417969-.199219-28.285157 7.753906-7.863281 20.417969-7.953125 28.28125-.199219l43.847656 43.226563v-28.984375c0-11.046875 8.953125-20 20-20s20 8.953125 20 20v45c0 27.570312-22.429687 50-50 50h-47.886719c-11.046875 0-19.99999975-8.957031-19.99999975-20 0-11.046875 8.95312475-20 19.99999975-20zm423.992188 40h48c11.046875 0 20-8.957031 20-20 0-11.046875-8.953125-20-20-20h-27.371094l41.398438-40.746094c7.875-7.746094 7.976562-20.410156.226562-28.28125-7.746094-7.875-20.410156-7.976562-28.28125-.226562l-43.972656 43.273437v-29.019531c0-11.046875-8.953125-20-20-20-11.042969 0-19.996094 8.953125-19.996094 20v45c0 27.570312 22.429688 50 49.996094 50zm-378.992188 278.996094h-45c-11.046875 0-19.99999975 8.953125-19.99999975 20 0 11.042968 8.95312475 20 19.99999975 20h28.984375l-43.226562 43.84375c-7.757813 7.867187-7.664063 20.527344.199219 28.285156 3.898437 3.839844 8.96875 5.757812 14.039062 5.757812 5.167969 0 10.332031-1.992187 14.246094-5.960937l40.753906-41.339844v27.300781c0 11.042969 8.957031 20 20 20 11.046875 0 20-8.957031 20-20v-47.890624c0-27.570313-22.429688-49.996094-49.996094-49.996094zm446.992188 20c0-11.046875-8.953125-20-20-20h-45c-27.566406 0-49.996094 22.429687-49.996094 50v47.886718c0 11.046876 8.953125 20 19.996094 20 11.046875 0 20-8.953124 20-20v-27.300781l40.757812 41.339844c3.914063 3.972656 9.078125 5.960937 14.242188 5.960937 5.070312 0 10.148437-1.917968 14.042968-5.757812 7.863282-7.753906 7.953126-20.417969.199219-28.28125l-43.226562-43.847656h28.984375c11.046875 0 20-8.957032 20-20zm-478.808594-59c-10.015625 0-19.386719-4.457032-25.710938-12.230469-6.355468-7.808594-8.820312-17.945313-6.773437-27.816406 5.769531-27.761719 23.21875-50.832031 46.515625-64.5-6.449219-9.566407-10.214844-21.074219-10.214844-33.453125 0-33.082032 26.914063-59.996094 59.996094-59.996094 33.085938 0 60 26.914062 60 59.996094 0 12.339844-3.746094 23.820312-10.160156 33.367187.683594.398438 1.363281.804688 2.035156 1.222657 6.144531-7.929688 13.164062-15.207032 20.972656-21.648438 8.75-7.21875 18.339844-13.253906 28.5-18.03125-10.824218-13.003906-17.347656-29.707031-17.347656-47.90625 0-41.355469 33.644531-75 75-75s75 33.644531 75 75c0 18.199219-6.523438 34.902344-17.347656 47.90625 10.160156 4.777344 19.75 10.816406 28.5 18.03125 7.804687 6.441406 14.824218 13.714844 20.964844 21.640625.675781-.414063 1.363281-.804687 2.046874-1.203125-6.414062-9.550781-10.164062-21.03125-10.164062-33.375 0-33.085938 26.914062-60 59.996094-60 33.085937 0 60 26.914062 60 60 0 32.730469-26.347656 59.40625-58.945313 59.972656-.179687.003906-.351562.027344-.53125.027344h-1.046875c-11.371094 0-22.347656 3.335938-31.710937 9.507812 2.332031 6.113282 4.230469 12.40625 5.65625 18.824219.152343.519531.285156 1.042969.394531 1.582031.558594 2.683594.816406 5.390626.808594 8.082032h82.496094c1.558593-7.578125 7.46875-13.886719 15.527343-15.558594 10.8125-2.253906 21.402344 4.699219 23.648438 15.515625 2.050781 9.867187-.417969 20.007813-6.769531 27.8125-6.324219 7.773437-15.699219 12.230469-25.714844 12.230469zm361.8125-138c0 11.027344 8.96875 20 19.996094 20 11.03125 0 20-8.972656 20-20s-8.96875-20-20-20c-11.027344 0-19.996094 8.972656-19.996094 20zm-139-18c19.296875 0 35-15.699219 35-35 0-19.296875-15.703125-35-35-35-19.300781 0-35 15.703125-35 35 0 19.300781 15.699219 35 35 35zm-93.589844 116h186.949219c.058594-.035156.132813-.097656.191406-.167969-9.359375-43.96875-48.625-75.832031-93.550781-75.832031-44.984375 0-84.296875 31.941406-93.589844 76zm-85.410156-98c0 11.027344 8.972656 20 20 20 11.03125 0 20-8.972656 20-20s-8.96875-20-20-20c-11.027344 0-20 8.972656-20 20zm-34.820312 98h80.179687c.023437-2.601563.285156-5.222656.824219-7.828125 1.464844-7.058594 3.503906-13.964844 6.0625-20.660157-9.363282-6.171874-20.332032-9.511718-31.71875-9.511718h-1.046875c-24.417969 0-46.070313 15.558594-54.300781 38zm0 0" fill="url(#linear0)"/></svg>