<svg height="512pt" viewBox="0 0 512 512" width="512pt" xmlns="http://www.w3.org/2000/svg" xmlns:xlink="http://www.w3.org/1999/xlink"><linearGradient id="linear0" gradientUnits="userSpaceOnUse" x1="-.0007746025" x2="511.0065970239" y1="256.0002112107" y2="256.0002112107"><stop offset="0" stop-color="#00f2fe"/><stop offset=".0208" stop-color="#03effe"/><stop offset=".2931" stop-color="#24d2fe"/><stop offset=".5538" stop-color="#3cbdfe"/><stop offset=".7956" stop-color="#4ab0fe"/><stop offset="1" stop-color="#4facfe"/></linearGradient><path d="m509.527344 499.558594c-3.152344 7.746094-10.617188 12.441406-18.492188 12.441406-2.507812 0-5.054687-.476562-7.519531-1.476562-1.007813-.410157-103.675781-41.445313-228.011719-41.445313-124.734375 0-226.996094 41.03125-228.015625 41.445313-10.207031 4.152343-21.855469-.753907-26.011719-10.964844-4.15625-10.210938.753907-21.855469 10.964844-26.011719 4.453125-1.8125 110.59375-44.390625 243.0625-44.390625 132.464844 0 238.605469 42.578125 243.0625 44.390625 10.207032 4.15625 15.117188 15.800781 10.960938 26.011719zm-428.679688-320.910156h115.769532v63.800781c0 21.859375-9.105469 43.003906-24.988282 58.019531l-78.546875 74.261719c-8.011719 7.574219-8.363281 20.207031-.792969 28.21875 3.929688 4.152343 9.210938 6.246093 14.511719 6.246093 4.917969 0 9.847657-1.808593 13.707031-5.453124l78.546876-74.265626c8.164062-7.71875 15.136718-16.519531 20.773437-26.070312h73.191406c5.574219 9.503906 12.460938 18.265625 20.53125 25.964844l77.878907 74.304687c3.867187 3.691407 8.824218 5.519531 13.777343 5.519531 5.265625 0 10.523438-2.070312 14.445313-6.179687 7.609375-7.976563 7.3125-20.609375-.664063-28.222656l-77.878906-74.304688c-15.710937-14.992187-24.726563-36.046875-24.726563-57.769531v-4.1875c0-11.023438-8.933593-19.960938-19.957031-19.960938-11.027343 0-19.960937 8.9375-19.960937 19.960938v4.1875c0 6.996094.625 13.941406 1.835937 20.765625h-43.644531c1.242188-6.90625 1.886719-13.945313 1.886719-21.035156v-63.800781h195.613281c11.027344 0 19.960938-8.9375 19.960938-19.960938s-8.933594-19.960938-19.960938-19.960938h-351.308594c-11.023437 0-19.960937 8.9375-19.960937 19.960938s8.933593 19.960938 19.960937 19.960938zm115.769532-118.765626c0-33.019531 26.863281-59.882812 59.882812-59.882812s59.882812 26.863281 59.882812 59.882812c0 33.019532-26.863281 59.882813-59.882812 59.882813s-59.882812-26.863281-59.882812-59.882813zm39.921874 0c0 11.007813 8.957032 19.960938 19.960938 19.960938 11.007812 0 19.960938-8.953125 19.960938-19.960938 0-11.007812-8.953126-19.960937-19.960938-19.960937-11.003906 0-19.960938 8.953125-19.960938 19.960937zm0 0" fill="url(#linear0)"/></svg>